HIERARCHY
ROOT Root
{
  OFFSET 0.0 0.0 0.0
  CHANNELS 6 Xposition Yposition Zposition Zrotation Yrotation Xrotation
  JOINT Hips
  {
    OFFSET 0.0 100.0 0.0
    CHANNELS 6 Xposition Yposition Zposition Zrotation Yrotation Xrotation
    JOINT Spine1
    {
      OFFSET -0.013727 5.003763 -0.053727
      CHANNELS 3 Zrotation Yrotation Xrotation
      JOINT Spine2
      {
        OFFSET -0.0 7.125301 -0.029825
        CHANNELS 3 Zrotation Yrotation Xrotation
        JOINT Chest
        {
          OFFSET -1e-06 7.550063 -0.815971
          CHANNELS 3 Zrotation Yrotation Xrotation
          JOINT Neck1
          {
            OFFSET -0.181677 26.311295 -0.553348
            CHANNELS 3 Zrotation Yrotation Xrotation
            JOINT Neck2
            {
              OFFSET -3e-06 7.709397 2.302585
              CHANNELS 3 Zrotation Yrotation Xrotation
              JOINT Head
              {
                OFFSET -5e-06 6.128916 1.953709
                CHANNELS 3 Zrotation Yrotation Xrotation
                JOINT HeadEnd
                {
                  OFFSET 0.003598 16.065403 -1.835379
                  CHANNELS 3 Zrotation Yrotation Xrotation
                }
                JOINT Jaw
                {
                  OFFSET 0.002637 0.475592 3.094941
                  CHANNELS 3 Zrotation Yrotation Xrotation
                }
                JOINT LeftEye
                {
                  OFFSET 3.206381 5.380205 7.586883
                  CHANNELS 3 Zrotation Yrotation Xrotation
                }
                JOINT RightEye
                {
                  OFFSET -3.22244 5.361869 7.558234
                  CHANNELS 3 Zrotation Yrotation Xrotation
                }
              }
            }
          }
          JOINT LeftShoulder
          {
            OFFSET 1.621652 23.237164 5.113413
            CHANNELS 3 Zrotation Yrotation Xrotation
            JOINT LeftArm
            {
              OFFSET 14.919846 2e-06 -5.502326
              CHANNELS 3 Zrotation Yrotation Xrotation
              JOINT LeftForeArm
              {
                OFFSET 28.739307 0.0 -0.002588
                CHANNELS 3 Zrotation Yrotation Xrotation
                JOINT LeftHand
                {
                  OFFSET 27.093981 -1e-06 0.002609
                  CHANNELS 3 Zrotation Yrotation Xrotation
                  JOINT LeftHandThumb1
                  {
                    OFFSET 2.276482 -1.392045 3.191413
                    CHANNELS 3 Zrotation Yrotation Xrotation
                    JOINT LeftHandThumb2
                    {
                      OFFSET 4.012836 -1.828127 1.641654
                      CHANNELS 3 Zrotation Yrotation Xrotation
                      JOINT LeftHandThumb3
                      {
                        OFFSET 2.798515 0.0 -3e-06
                        CHANNELS 3 Zrotation Yrotation Xrotation
                        JOINT LeftHandThumbEnd
                        {
                          OFFSET 3.180793 -4e-06 4e-06
                          CHANNELS 3 Zrotation Yrotation Xrotation
                        }
                      }
                    }
                  }
                  JOINT LeftHandIndex1
                  {
                    OFFSET 3.247555 -0.531998 2.296169
                    CHANNELS 3 Zrotation Yrotation Xrotation
                    JOINT LeftHandIndex2
                    {
                      OFFSET 6.364578 0.01206 0.1786
                      CHANNELS 3 Zrotation Yrotation Xrotation
                      JOINT LeftHandIndex3
                      {
                        OFFSET 3.662364 0.0 0.0
                        CHANNELS 3 Zrotation Yrotation Xrotation
                        JOINT LeftHandIndex4
                        {
                          OFFSET 2.329242 4e-06 4e-06
                          CHANNELS 3 Zrotation Yrotation Xrotation
                          JOINT LeftHandIndexEnd
                          {
                            OFFSET 2.759615 -0.180537 -0.113024
                            CHANNELS 3 Zrotation Yrotation Xrotation
                          }
                        }
                      }
                    }
                  }
                  JOINT LeftHandMiddle1
                  {
                    OFFSET 3.163495 0.240981 1.000332
                    CHANNELS 3 Zrotation Yrotation Xrotation
                    JOINT LeftHandMiddle2
                    {
                      OFFSET 6.19078 -0.259278 -1.002548
                      CHANNELS 3 Zrotation Yrotation Xrotation
                      JOINT LeftHandMiddle3
                      {
                        OFFSET 4.35652 -4e-06 -1e-06
                        CHANNELS 3 Zrotation Yrotation Xrotation
                        JOINT LeftHandMiddle4
                        {
                          OFFSET 2.996877 -8e-06 0.0
                          CHANNELS 3 Zrotation Yrotation Xrotation
                          JOINT LeftHandMiddleEnd
                          {
                            OFFSET 2.304287 -0.294569 -0.031741
                            CHANNELS 3 Zrotation Yrotation Xrotation
                          }
                        }
                      }
                    }
                  }
                  JOINT LeftHandRing1
                  {
                    OFFSET 2.882643 -0.053652 -0.322543
                    CHANNELS 3 Zrotation Yrotation Xrotation
                    JOINT LeftHandRing2
                    {
                      OFFSET 5.854541 -0.486202 -1.373841
                      CHANNELS 3 Zrotation Yrotation Xrotation
                      JOINT LeftHandRing3
                      {
                        OFFSET 4.350578 0.0 3e-06
                        CHANNELS 3 Zrotation Yrotation Xrotation
                        JOINT LeftHandRing4
                        {
                          OFFSET 2.651321 7e-06 2e-06
                          CHANNELS 3 Zrotation Yrotation Xrotation
                          JOINT LeftHandRingEnd
                          {
                            OFFSET 1.936105 0.077687 -7.1e-05
                            CHANNELS 3 Zrotation Yrotation Xrotation
                          }
                        }
                      }
                    }
                  }
                  JOINT LeftHandPinky1
                  {
                    OFFSET 2.8655 -0.310005 -1.600378
                    CHANNELS 3 Zrotation Yrotation Xrotation
                    JOINT LeftHandPinky2
                    {
                      OFFSET 5.087849 -1.331141 -1.77123
                      CHANNELS 3 Zrotation Yrotation Xrotation
                      JOINT LeftHandPinky3
                      {
                        OFFSET 3.070974 4e-06 0.0
                        CHANNELS 3 Zrotation Yrotation Xrotation
                        JOINT LeftHandPinky4
                        {
                          OFFSET 1.549672 0.0 1e-06
                          CHANNELS 3 Zrotation Yrotation Xrotation
                          JOINT LeftHandPinkyEnd
                          {
                            OFFSET 1.944893 -0.157802 0.057219
                            CHANNELS 3 Zrotation Yrotation Xrotation
                          }
                        }
                      }
                    }
                  }
                }
              }
            }
          }
          JOINT RightShoulder
          {
            OFFSET -1.380118 23.180309 5.214158
            CHANNELS 3 Zrotation Yrotation Xrotation
            JOINT RightArm
            {
              OFFSET -15.037196 1.2e-05 -5.545604
              CHANNELS 3 Zrotation Yrotation Xrotation
              JOINT RightForeArm
              {
                OFFSET -28.736639 2e-06 -0.002597
                CHANNELS 3 Zrotation Yrotation Xrotation
                JOINT RightHand
                {
                  OFFSET -27.133619 -0.0 0.002613
                  CHANNELS 3 Zrotation Yrotation Xrotation
                  JOINT RightHandThumb1
                  {
                    OFFSET -2.274032 -1.383988 3.163127
                    CHANNELS 3 Zrotation Yrotation Xrotation
                    JOINT RightHandThumb2
                    {
                      OFFSET -4.011429 -1.827466 1.640914
                      CHANNELS 3 Zrotation Yrotation Xrotation
                      JOINT RightHandThumb3
                      {
                        OFFSET -2.794935 -4e-06 -3e-06
                        CHANNELS 3 Zrotation Yrotation Xrotation
                        JOINT RightHandThumbEnd
                        {
                          OFFSET -3.183852 4e-06 1e-06
                          CHANNELS 3 Zrotation Yrotation Xrotation
                        }
                      }
                    }
                  }
                  JOINT RightHandIndex1
                  {
                    OFFSET -3.253266 -0.520057 2.282866
                    CHANNELS 3 Zrotation Yrotation Xrotation
                    JOINT RightHandIndex2
                    {
                      OFFSET -6.341917 0.012471 0.178266
                      CHANNELS 3 Zrotation Yrotation Xrotation
                      JOINT RightHandIndex3
                      {
                        OFFSET -3.654871 -8e-06 -0.0
                        CHANNELS 3 Zrotation Yrotation Xrotation
                        JOINT RightHandIndex4
                        {
                          OFFSET -2.327586 0.0 1e-06
                          CHANNELS 3 Zrotation Yrotation Xrotation
                          JOINT RightHandIndexEnd
                          {
                            OFFSET -2.76179 -0.180656 -0.113078
                            CHANNELS 3 Zrotation Yrotation Xrotation
                          }
                        }
                      }
                    }
                  }
                  JOINT RightHandMiddle1
                  {
                    OFFSET -3.168106 0.246593 1.00103
                    CHANNELS 3 Zrotation Yrotation Xrotation
                    JOINT RightHandMiddle2
                    {
                      OFFSET -6.180828 -0.258836 -1.000895
                      CHANNELS 3 Zrotation Yrotation Xrotation
                      JOINT RightHandMiddle3
                      {
                        OFFSET -4.348901 0.0 -0.0
                        CHANNELS 3 Zrotation Yrotation Xrotation
                        JOINT RightHandMiddle4
                        {
                          OFFSET -3.00024 -4e-06 -2e-06
                          CHANNELS 3 Zrotation Yrotation Xrotation
                          JOINT RightHandMiddleEnd
                          {
                            OFFSET -2.30252 -0.29437 -0.031706
                            CHANNELS 3 Zrotation Yrotation Xrotation
                          }
                        }
                      }
                    }
                  }
                  JOINT RightHandRing1
                  {
                    OFFSET -2.88569 -0.067952 -0.308858
                    CHANNELS 3 Zrotation Yrotation Xrotation
                    JOINT RightHandRing2
                    {
                      OFFSET -5.854198 -0.48613 -1.373731
                      CHANNELS 3 Zrotation Yrotation Xrotation
                      JOINT RightHandRing3
                      {
                        OFFSET -4.33881 -4e-06 -0.0
                        CHANNELS 3 Zrotation Yrotation Xrotation
                        JOINT RightHandRing4
                        {
                          OFFSET -2.654903 -4e-06 4e-06
                          CHANNELS 3 Zrotation Yrotation Xrotation
                          JOINT RightHandRingEnd
                          {
                            OFFSET -1.933568 0.077527 -5.2e-05
                            CHANNELS 3 Zrotation Yrotation Xrotation
                          }
                        }
                      }
                    }
                  }
                  JOINT RightHandPinky1
                  {
                    OFFSET -2.866425 -0.342796 -1.584145
                    CHANNELS 3 Zrotation Yrotation Xrotation
                    JOINT RightHandPinky2
                    {
                      OFFSET -5.091371 -1.332055 -1.772385
                      CHANNELS 3 Zrotation Yrotation Xrotation
                      JOINT RightHandPinky3
                      {
                        OFFSET -3.062664 -4e-06 1e-06
                        CHANNELS 3 Zrotation Yrotation Xrotation
                        JOINT RightHandPinky4
                        {
                          OFFSET -1.546529 4e-06 -2e-06
                          CHANNELS 3 Zrotation Yrotation Xrotation
                          JOINT RightHandPinkyEnd
                          {
                            OFFSET -1.945119 -0.157718 0.057211
                            CHANNELS 3 Zrotation Yrotation Xrotation
                          }
                        }
                      }
                    }
                  }
                }
              }
            }
          }
        }
      }
    }
    JOINT LeftLeg
    {
      OFFSET 10.043214 -8.434526 2.595655
      CHANNELS 3 Zrotation Yrotation Xrotation
      JOINT LeftShin
      {
        OFFSET -1e-06 -43.221752 -0.802913
        CHANNELS 3 Zrotation Yrotation Xrotation
        JOINT LeftFoot
        {
          OFFSET 1e-06 -42.155094 -3.481523
          CHANNELS 3 Zrotation Yrotation Xrotation
          JOINT LeftToeBase
          {
            OFFSET 0.0 -5.059472 13.231529
            CHANNELS 3 Zrotation Yrotation Xrotation
            JOINT LeftToeEnd
            {
              OFFSET -0.009607 -1.647619 6.513017
              CHANNELS 3 Zrotation Yrotation Xrotation
            }
          }
        }
      }
    }
    JOINT RightLeg
    {
      OFFSET -10.047278 -8.29526 2.620317
      CHANNELS 3 Zrotation Yrotation Xrotation
      JOINT RightShin
      {
        OFFSET 1e-06 -43.362206 -0.805556
        CHANNELS 3 Zrotation Yrotation Xrotation
        JOINT RightFoot
        {
          OFFSET 2e-06 -42.117393 -3.478398
          CHANNELS 3 Zrotation Yrotation Xrotation
          JOINT RightToeBase
          {
            OFFSET -0.0 -5.079609 13.284196
            CHANNELS 3 Zrotation Yrotation Xrotation
            JOINT RightToeEnd
            {
              OFFSET 0.009532 -1.634378 6.460591
              CHANNELS 3 Zrotation Yrotation Xrotation
            }
          }
        }
      }
    }
  }
}
MOTION
Frames: 4
Frame Time: 0.03333333333333333
0.0 0.0 0.0 0.0 -0.0 0.0 -0.154226 51.082134 117.523048 -0.624986 -5.072325 48.249077 1.213426 1.561051 18.035404 0.021012 0.091182 1.19271 -3.250734 -2.367075 14.841443 -3.50017 3.24887 -11.006827 -0.601914 0.377569 -3.456931 -3.81134 -0.043623 -5.074249 7.7e-05 -2.3e-05 6e-06 0.233021 -0.124725 -0.227141 0.864086 -3.814403 -10.384052 -0.403502 3.572559 -10.389431 1.663695 -35.064827 8.627072 -9.135106 -29.64493 -44.335484 1.913591 -53.988533 -0.309971 59.655037 -14.799399 1.651586 -5.882104 9.861284 0.70259 -10.936871 -0.360576 7.156206 1e-06 8.774825 -1e-06 -15.117107 18.922695 7.218456 -1.844032 2.498503 -2.507277 -10.163599 4.678944 4.621108 -20.976023 -5e-06 4e-06 -21.226284 2.451695 -3.593996 1e-06 -7e-06 -1e-06 -1.362681 2.240798 -0.746322 -21.334913 0.584907 3.008326 -13.821215 -3e-06 4e-06 -23.887171 -0.249078 -0.83948 -59.793663 2.882024 -1.775031 -0.294025 1.679687 0.833258 -14.218208 0.093212 1.30058 -34.212051 -0.287567 0.967174 -20.033215 0.964535 1.212847 -1e-06 1e-06 -1e-06 -3.440389 0.788233 0.501655 -15.928187 -3.167312 2.999708 -6.338827 -2e-06 0.0 -18.123444 3.64818 -4.905669 -6e-06 1e-06 -0.0 -8.312608 28.605593 5.030023 17.161381 60.625237 -23.600794 0.355077 12.111094 0.150259 -56.554344 28.180182 10.13414 2.24354 -5.255033 -3.180155 14.282879 -0.826594 6.952498 -2e-06 -12.690597 2e-06 16.276928 -17.979887 2.814632 1.665665 -1.95592 -2.878297 4.727796 -4.170584 4.993921 11.020517 3e-06 -0.0 12.109042 -3.735713 -2.866781 0.0 0.0 0.0 1.291984 -1.928548 -1.498088 14.800115 0.567467 3.865604 14.242558 -1.341734 -6.660652 19.631947 0.143927 -0.648244 49.844406 -0.732948 -6.290868 0.353027 -1.511149 -0.03194 20.222775 3.684306 2.316629 18.787262 3e-06 0.0 10.75162 -0.479869 1.397905 -0.0 0.0 0.0 3.273805 0.305947 -0.580111 21.486797 11.830367 2.266131 8.162921 -0.0 1e-06 18.399067 -3.798984 -4.94057 3e-06 -1e-06 -1e-06 -2.192953 -2.501422 -52.471256 0.068817 1.250683 98.655647 -16.102186 -1.609413 42.809956 2.148454 -1.804124 3.587635 0.0 -0.0 1e-06 -4.493327 2.655102 -38.876766 0.069724 1.269525 93.930557 17.419109 -1.78513 37.245277 -1.899873 0.874887 6.510842 0.0 -0.0 -1e-06 
0.0 0.0 0.0 0.0 -0.0 0.0 0.52308 51.239681 119.006256 -1.071838 -4.65359 47.825382 1.521591 1.462084 18.390312 0.124818 -0.141291 1.29895 -2.471995 -2.554684 15.00131 -4.050576 3.248495 -11.202531 -0.477358 0.868885 -3.485303 -3.883648 0.471059 -4.963375 7.7e-05 -2.3e-05 6e-06 0.193458 -0.098478 -0.246938 0.831368 -3.780402 -10.361631 -0.450393 3.591518 -10.369211 4.0762 -35.943005 7.573653 -3.440594 -29.057325 -46.509171 2.321428 -45.967457 -0.611747 58.442242 -10.519072 0.025827 -5.882106 9.861285 0.70259 -10.936871 -0.360575 7.156205 -1e-06 8.774824 -1e-06 -15.280396 18.974422 7.121855 -1.844032 2.498504 -2.507278 -10.163599 4.678944 4.621108 -20.976023 -3e-06 3e-06 -21.226286 2.451698 -3.593999 1e-06 -7e-06 -0.0 -1.362682 2.240798 -0.746323 -21.334913 0.584908 3.008325 -13.821214 -2e-06 3e-06 -23.887171 -0.249076 -0.839482 -59.880501 2.940827 -1.875733 -0.294025 1.679687 0.833255 -14.218207 0.093215 1.30058 -34.212048 -0.287563 0.967173 -20.033211 0.964537 1.212844 -1e-06 2e-06 -0.0 -3.440388 0.788233 0.501656 -15.928185 -3.167309 2.999707 -6.338826 -1e-06 2e-06 -18.123444 3.648183 -4.90567 -7e-06 1e-06 -2e-06 -7.585142 28.997547 5.192563 17.417953 60.075661 -21.008965 0.425622 11.926586 0.160632 -57.427193 28.479607 9.71204 2.243541 -5.255037 -3.180158 14.282894 -0.826593 6.952502 -3e-06 -12.690603 -1e-06 16.202545 -17.922098 2.74779 1.665666 -1.955921 -2.878298 4.727799 -4.170586 4.993923 11.020526 3e-06 -1e-06 12.109053 -3.735715 -2.866784 0.0 0.0 0.0 1.291984 -1.928549 -1.498089 14.800125 0.56747 3.865607 14.242572 -1.341735 -6.660657 19.631969 0.143927 -0.648244 49.761108 -0.774236 -6.337772 0.353029 -1.511151 -0.03194 20.22279 3.684311 2.316629 18.78727 7e-06 -0.0 10.751627 -0.479867 1.397906 -0.0 -0.0 0.0 3.273807 0.305947 -0.580111 21.486818 11.830373 2.266132 8.162925 2e-06 -0.0 18.39908 -3.798982 -4.940574 4e-06 -1e-06 -1e-06 -2.344969 -2.78907 -50.093437 0.10158 1.252934 96.841209 -16.310169 -1.38791 42.045189 2.11939 -1.789142 3.333683 1e-06 0.0 1e-06 -4.490279 2.914378 -43.837151 0.13676 1.023834 100.008553 17.588327 -2.120772 36.07811 -1.922121 0.888026 6.477465 0.0 0.0 -1e-06 
0.0 0.0 0.0 0.0 -0.0 0.0 1.162837 51.235165 120.578636 -1.341958 -4.046771 47.39193 1.84655 1.342818 18.665279 0.246289 -0.422193 1.405168 -1.661204 -2.82065 15.13852 -4.325914 3.209532 -11.268599 -0.374633 1.313097 -3.521177 -4.014666 1.028956 -5.06161 7.7e-05 -2.3e-05 6e-06 0.171406 -0.08369 -0.249652 0.81775 -3.761468 -10.351411 -0.481739 3.602278 -10.354141 6.569911 -36.764736 6.522142 0.825117 -28.63797 -46.545849 2.04896 -37.35392 -0.433207 56.921238 -5.887372 -1.939208 -5.882112 9.861294 0.70259 -10.936881 -0.360575 7.156212 -1e-06 8.774831 -3e-06 -15.379171 19.000422 7.013042 -1.844033 2.498507 -2.507279 -10.16361 4.678949 4.621113 -20.97604 -1e-06 7e-06 -21.226303 2.451702 -3.594002 -0.0 -6e-06 -1e-06 -1.362682 2.2408 -0.746323 -21.334932 0.584912 3.008328 -13.821224 -0.0 4e-06 -23.88719 -0.249074 -0.839483 -59.874424 2.976795 -1.898636 -0.294025 1.679689 0.833256 -14.218219 0.093216 1.300585 -34.212082 -0.287557 0.967176 -20.033232 0.964541 1.212845 -1e-06 1e-06 0.0 -3.440392 0.788234 0.501656 -15.928201 -3.167312 2.999711 -6.338831 -0.0 3e-06 -18.123463 3.648189 -4.905674 -6e-06 -0.0 -2e-06 -6.753555 29.166893 5.411998 17.9457 59.503551 -18.336506 0.49343 11.891549 0.156204 -58.698948 29.014521 8.930467 2.243543 -5.255041 -3.180162 14.282904 -0.826593 6.952507 -3e-06 -12.690611 -3e-06 16.219093 -17.880919 2.669851 1.665668 -1.955923 -2.878302 4.727805 -4.170588 4.993925 11.020536 4e-06 -1e-06 12.109064 -3.735717 -2.866787 0.0 0.0 -0.0 1.291987 -1.928551 -1.498091 14.800144 0.56747 3.865611 14.242586 -1.341736 -6.660665 19.631987 0.143926 -0.648246 49.766445 -0.774794 -6.344889 0.35303 -1.511152 -0.031941 20.222813 3.684314 2.316633 18.787292 7e-06 -1e-06 10.751638 -0.479868 1.397908 -0.0 -0.0 -0.0 3.273811 0.305947 -0.580111 21.486841 11.830385 2.266138 8.162936 2e-06 -0.0 18.399101 -3.798982 -4.940581 3e-06 -2e-06 -1e-06 -2.460123 -3.241254 -47.610565 0.121878 1.251992 95.023087 -16.380917 -1.030006 41.246918 2.109144 -1.777254 3.131076 0.0 0.0 2e-06 -4.454014 3.007909 -49.055435 0.170555 0.702196 106.030533 17.93037 -2.489854 35.0392 -1.924485 0.910807 6.475473 0.0 -0.0 -1e-06 
0.0 0.0 0.0 0.0 -0.0 0.0 1.74939 51.084942 122.293259 -1.320434 -3.254536 46.966446 2.194058 1.175977 18.821617 0.355087 -0.738558 1.4976 -0.865612 -3.190137 15.271997 -4.355932 3.151377 -11.174117 -0.315286 1.642897 -3.535729 -4.190258 1.543608 -5.356441 7.7e-05 -2.3e-05 5e-06 0.149614 -0.07256 -0.239881 0.803316 -3.755723 -10.364183 -0.512709 3.619499 -10.359549 8.75421 -37.472527 5.585148 3.350858 -28.569679 -45.222767 1.448342 -30.100487 -0.180409 55.220562 -1.96615 -3.902163 -5.882112 9.861292 0.702591 -10.936881 -0.360571 7.156211 -1e-06 8.77483 -1e-06 -15.358719 18.947643 6.962959 -1.844033 2.498506 -2.507278 -10.16361 4.678948 4.621111 -20.976038 1e-06 6e-06 -21.226303 2.451703 -3.594002 0.0 -6e-06 -1e-06 -1.362682 2.240798 -0.746325 -21.33493 0.584915 3.008326 -13.821223 -1e-06 4e-06 -23.887188 -0.249074 -0.839484 -59.73851 2.972223 -1.841638 -0.294026 1.679688 0.833257 -14.218219 0.093217 1.300583 -34.212074 -0.287558 0.967171 -20.033226 0.964541 1.212843 -0.0 0.0 0.0 -3.440391 0.788235 0.501656 -15.928198 -3.167309 2.99971 -6.338833 0.0 2e-06 -18.123463 3.648188 -4.905672 -6e-06 1e-06 -3e-06 -5.798467 29.113436 5.764822 18.722183 58.830406 -15.688701 0.597781 12.051346 0.152714 -60.317703 29.724083 8.208742 2.243543 -5.255041 -3.18016 14.282905 -0.826595 6.952507 -2e-06 -12.69061 -1e-06 16.28438 -17.868887 2.597091 1.665669 -1.955923 -2.878301 4.7278 -4.170589 4.993926 11.020536 3e-06 -2e-06 12.109065 -3.735718 -2.866787 0.0 -0.0 0.0 1.291987 -1.928551 -1.498091 14.800139 0.567469 3.865609 14.242584 -1.341738 -6.660663 19.631985 0.143926 -0.648246 49.857525 -0.751393 -6.294773 0.35303 -1.511152 -0.03194 20.222805 3.684313 2.316631 18.787289 5e-06 -2e-06 10.751637 -0.479868 1.397906 -0.0 -0.0 -0.0 3.27381 0.305947 -0.580111 21.48683 11.830382 2.266136 8.162933 1e-06 -0.0 18.399099 -3.798985 -4.94058 3e-06 -2e-06 -1e-06 -2.577062 -4.002384 -44.978802 0.140963 1.310724 93.080826 -16.229391 -0.554388 40.467838 2.115978 -1.758648 2.962318 0.0 1e-06 2e-06 -4.439636 2.770442 -54.376366 0.137545 0.366339 111.742447 18.42864 -2.841939 34.179787 -1.920405 0.939808 6.545429 0.0 -0.0 -2e-06 
